<?xml version="1.0" encoding="utf-8"?>
<!-- Svg Vector Icons : http://www.onlinewebfonts.com/icon -->
<!DOCTYPE svg PUBLIC "-//W3C//DTD SVG 1.1//EN" "http://www.w3.org/Graphics/SVG/1.1/DTD/svg11.dtd">
<svg version="1.1" xmlns="http://www.w3.org/2000/svg" xmlns:xlink="http://www.w3.org/1999/xlink" x="0px" y="0px" viewBox="0 0 1000 1000" enable-background="new 0 0 1000 1000" xml:space="preserve">
	<metadata>
		Svg Vector Icons : http://www.onlinewebfonts.com/icon
	</metadata>
	<g>
		<g transform="matrix(1 0 0 -1 0 1920)">
			<path fill="#dddddd" d="M595.5,1565.6c-10,0-18.6,3.6-25.8,10.8c-7.2,7.2-10.8,15.8-10.8,25.8v256.2c0,10,3.6,18.6,10.8,25.8c7.2,7.2,15.8,10.8,25.8,10.8h329.3c10,0,18.6-3.6,25.8-10.8c7.2-7.2,10.8-15.8,10.8-25.8v-256.2c0-10-3.6-18.6-10.8-25.8c-7.2-7.2-15.8-10.8-25.8-10.8H595.5z M427.9,945c-16.3,0-33.8,1.7-52.3,5.1c-18.5,3.4-38,8.7-58.4,15.7c-20.4,7.1-40.9,15.7-61.5,26c-20.6,10.2-41,22.7-61.1,37.3c-20.1,14.6-39.3,30.6-57.5,47.9c-18.2,17.3-35.1,37.1-50.7,59.3c-15.6,22.2-29,45.7-40.3,70.4C35,1231.6,26.2,1259,19.7,1289c-6.5,30-9.7,61.2-9.7,93.7c0,39.8,5.2,78.6,15.7,116.6c10.5,37.9,25.2,72.9,44.1,105s41.9,61.7,69,88.7c27.1,27.1,56.7,50.1,88.7,69c32.1,18.9,67.1,33.6,105,44.1c37.9,10.5,76.8,15.7,116.6,15.7c22.7,0,47.1-2.2,73.2-6.6v-111.6c-24.9,5.6-49.3,8.4-73.2,8.4c-25.6,0-50.7-2.9-75.4-8.6c-24.6-5.7-47.8-14-69.3-24.9c-21.6-10.9-42-23.8-61.1-38.8c-19.2-15-36.2-32.1-51.2-51.2s-27.9-39.5-38.8-61.1c-10.9-21.6-19.2-44.7-24.9-69.3c-5.7-24.6-8.6-49.8-8.6-75.4c0-32.4,4.1-63.2,12.3-92.4c8.2-29.2,19-54.6,32.6-76.3c13.5-21.7,29.3-41.6,47.4-59.6c18.1-18.1,36.8-33.2,56.2-45.4c19.4-12.2,39.1-22.5,59.1-30.9c20-8.4,38.8-14.5,56.4-18.3c17.6-3.8,33.5-5.7,47.9-5.7c47.8,0,88.5,5.4,122,16.1c33.5,10.7,65.8,28.2,96.8,52.3c24.6,20.7,40,33.9,46.1,39.5c4.1,3.9,9.5,5.9,16.1,5.9c10.7,0,20.4-4.6,28.9-13.9l24.9-26.7c8-8.5,12.1-17.8,12.1-27.8c0-7.3-2.4-13.2-7.3-17.6l-5.1-5.1c0,0-2.4-2.3-7.3-7s-8.7-7.9-11.3-9.9c-2.7-2-9-7.1-19-15.4c-19-14.4-37.9-27-56.5-37.9c-18.7-10.9-40.3-21.2-65-31.1c-24.6-9.9-52-17.4-82.2-22.7C494.6,947.6,462.3,945,427.9,945z M632.1,1638.8h109.8v36.6h-73.2v36.6h73.2v109.8H632.1v-36.6h73.2v-36.6h-73.2V1638.8z M851.7,1638.8h36.6v183h-36.6V1712h-36.6v109.8h-36.6v-146.4h73.2V1638.8z M449.1,1309.5c-8.8,0-17.3,1.5-25.4,4.6s-15.4,7.3-21.8,12.8c-6.3,5.5-11.6,11.9-15.7,19.2H284.5c-5.1,0-9.5,1.8-13,5.3c-3.5,3.5-5.3,7.9-5.3,13v34.8c0,5.1,1.8,9.8,5.5,13.9c3.7,4.1,7.9,6.2,12.8,6.2h101.7c6.3,11.2,15.1,20,26.3,26.3v174.2c0,5.1,1.8,9.6,5.5,13.4c3.7,3.8,7.9,5.7,12.8,5.7h35.9c5.1,0,9.6-1.9,13.4-5.7c3.8-3.8,5.7-8.2,5.7-13.4v-174.2c11.2-6.3,20.1-15.1,26.7-26.3c6.6-11.2,9.9-23.4,9.9-36.6c0-20.2-7.1-37.5-21.4-51.8S469.4,1309.5,449.1,1309.5z M822.4,1196l-142.7,208.6c-2,2.7-2.9,5.1-2.9,7.3c0,4.9,3.4,7.3,10.2,7.3h90.4c-1.7,37.6-11.2,74.2-28.5,109.8h117.8c12.4-36.1,19.3-71.8,20.5-107.2l0.4-2.6h92.2c6.8,0,10.2-2.4,10.2-7.3c0-2.2-1-4.6-2.9-7.3L844.4,1196c-2.9-4.1-6.6-6.2-11-6.2C829,1189.8,825.3,1191.9,822.4,1196z" />
		</g>
	</g>
</svg>
